<?xml version="1.0"?>
<svg xmlns="http://www.w3.org/2000/svg" xmlns:xlink="http://www.w3.org/1999/xlink" version="1.1" id="Layer_1" x="0px" y="0px" viewBox="0 0 495 495" style="enable-background:new 0 0 495 495;" xml:space="preserve" width="512px" height="512px" class=""><g transform="matrix(6.12323e-17, 1, -1, 6.12323e-17, 495, -2.84217e-14)"><g>
	<polygon style="fill:#030303" points="247.5,197.105 247.5,297.895 297.731,247.5  " data-original="#9BC9FF" class="" data-old_color="#070707"/>
	<path style="fill:#030303" d="M247.5,0v140.444L354.208,247.5L247.5,354.556V495C384.19,495,495,384.19,495,247.5   S384.19,0,247.5,0z" data-original="#9BC9FF" class="" data-old_color="#070707"/>
	<path style="fill:#000000" d="M223.017,379.119l-28.33-28.238l52.813-52.986V197.105l-52.813-52.986l28.33-28.238l24.483,24.563V0   C110.81,0,0,110.81,0,247.5S110.81,495,247.5,495V354.556L223.017,379.119z" data-original="#BDDBFF" class="" data-old_color="#010101"/>
	<polygon style="fill:#38BCDB" points="194.687,144.119 247.5,197.105 297.731,247.5 247.5,297.895 194.687,350.881    223.017,379.119 247.5,354.556 354.208,247.5 247.5,140.444 223.017,115.881  " data-original="#2488FF" class="active-path" data-old_color="#38bcdb"/>
</g></g> </svg>
